<svg width="1080" height="1080" viewBox="0 0 1080 1080" fill="none" xmlns="http://www.w3.org/2000/svg">
<rect width="1080" height="1080" fill="#FFC300"/>
<path d="M87.7159 546.636V587H68.3523V517.182H86.8068V529.5H87.625C89.1705 525.439 91.7614 522.227 95.3977 519.864C99.0341 517.47 103.443 516.273 108.625 516.273C113.473 516.273 117.701 517.333 121.307 519.455C124.913 521.576 127.716 524.606 129.716 528.545C131.716 532.455 132.716 537.121 132.716 542.545V587H113.352V546C113.383 541.727 112.292 538.394 110.08 536C107.867 533.576 104.822 532.364 100.943 532.364C98.3371 532.364 96.0341 532.924 94.0341 534.045C92.0644 535.167 90.5189 536.803 89.3977 538.955C88.3068 541.076 87.7462 543.636 87.7159 546.636ZM179.273 588.364C172.212 588.364 166.106 586.864 160.955 583.864C155.833 580.833 151.879 576.621 149.091 571.227C146.303 565.803 144.909 559.515 144.909 552.364C144.909 545.152 146.303 538.848 149.091 533.455C151.879 528.03 155.833 523.818 160.955 520.818C166.106 517.788 172.212 516.273 179.273 516.273C186.333 516.273 192.424 517.788 197.545 520.818C202.697 523.818 206.667 528.03 209.455 533.455C212.242 538.848 213.636 545.152 213.636 552.364C213.636 559.515 212.242 565.803 209.455 571.227C206.667 576.621 202.697 580.833 197.545 583.864C192.424 586.864 186.333 588.364 179.273 588.364ZM179.364 573.364C182.576 573.364 185.258 572.455 187.409 570.636C189.561 568.788 191.182 566.273 192.273 563.091C193.394 559.909 193.955 556.288 193.955 552.227C193.955 548.167 193.394 544.545 192.273 541.364C191.182 538.182 189.561 535.667 187.409 533.818C185.258 531.97 182.576 531.045 179.364 531.045C176.121 531.045 173.394 531.97 171.182 533.818C169 535.667 167.348 538.182 166.227 541.364C165.136 544.545 164.591 548.167 164.591 552.227C164.591 556.288 165.136 559.909 166.227 563.091C167.348 566.273 169 568.788 171.182 570.636C173.394 572.455 176.121 573.364 179.364 573.364ZM263.114 517.182V531.727H221.068V517.182H263.114ZM230.614 500.455H249.977V565.545C249.977 567.333 250.25 568.727 250.795 569.727C251.341 570.697 252.098 571.379 253.068 571.773C254.068 572.167 255.22 572.364 256.523 572.364C257.432 572.364 258.341 572.288 259.25 572.136C260.159 571.955 260.856 571.818 261.341 571.727L264.386 586.136C263.417 586.439 262.053 586.788 260.295 587.182C258.538 587.606 256.402 587.864 253.886 587.955C249.22 588.136 245.129 587.515 241.614 586.091C238.129 584.667 235.417 582.455 233.477 579.455C231.538 576.455 230.583 572.667 230.614 568.091V500.455ZM296.341 546.636V587H276.977V493.909H295.795V529.5H296.614C298.189 525.379 300.735 522.152 304.25 519.818C307.765 517.455 312.174 516.273 317.477 516.273C322.326 516.273 326.553 517.333 330.159 519.455C333.795 521.545 336.614 524.561 338.614 528.5C340.644 532.409 341.644 537.091 341.614 542.545V587H322.25V546C322.28 541.697 321.189 538.348 318.977 535.955C316.795 533.561 313.735 532.364 309.795 532.364C307.159 532.364 304.826 532.924 302.795 534.045C300.795 535.167 299.22 536.803 298.068 538.955C296.947 541.076 296.371 543.636 296.341 546.636ZM356.602 587V517.182H375.966V587H356.602ZM366.33 508.182C363.451 508.182 360.981 507.227 358.92 505.318C356.89 503.379 355.875 501.061 355.875 498.364C355.875 495.697 356.89 493.409 358.92 491.5C360.981 489.561 363.451 488.591 366.33 488.591C369.208 488.591 371.663 489.561 373.693 491.5C375.754 493.409 376.784 495.697 376.784 498.364C376.784 501.061 375.754 503.379 373.693 505.318C371.663 507.227 369.208 508.182 366.33 508.182ZM410.591 546.636V587H391.227V517.182H409.682V529.5H410.5C412.045 525.439 414.636 522.227 418.273 519.864C421.909 517.47 426.318 516.273 431.5 516.273C436.348 516.273 440.576 517.333 444.182 519.455C447.788 521.576 450.591 524.606 452.591 528.545C454.591 532.455 455.591 537.121 455.591 542.545V587H436.227V546C436.258 541.727 435.167 538.394 432.955 536C430.742 533.576 427.697 532.364 423.818 532.364C421.212 532.364 418.909 532.924 416.909 534.045C414.939 535.167 413.394 536.803 412.273 538.955C411.182 541.076 410.621 543.636 410.591 546.636ZM502.057 614.636C495.784 614.636 490.405 613.773 485.92 612.045C481.466 610.348 477.92 608.03 475.284 605.091C472.648 602.152 470.936 598.848 470.148 595.182L488.057 592.773C488.602 594.167 489.466 595.47 490.648 596.682C491.83 597.894 493.39 598.864 495.33 599.591C497.299 600.348 499.693 600.727 502.511 600.727C506.723 600.727 510.193 599.697 512.92 597.636C515.678 595.606 517.057 592.197 517.057 587.409V574.636H516.239C515.39 576.576 514.117 578.409 512.42 580.136C510.723 581.864 508.542 583.273 505.875 584.364C503.208 585.455 500.027 586 496.33 586C491.087 586 486.314 584.788 482.011 582.364C477.739 579.909 474.33 576.167 471.784 571.136C469.269 566.076 468.011 559.682 468.011 551.955C468.011 544.045 469.299 537.439 471.875 532.136C474.451 526.833 477.875 522.864 482.148 520.227C486.451 517.591 491.163 516.273 496.284 516.273C500.193 516.273 503.466 516.939 506.102 518.273C508.739 519.576 510.86 521.212 512.466 523.182C514.102 525.121 515.36 527.03 516.239 528.909H516.966V517.182H536.193V587.682C536.193 593.621 534.739 598.591 531.83 602.591C528.92 606.591 524.89 609.591 519.739 611.591C514.617 613.621 508.723 614.636 502.057 614.636ZM502.466 571.455C505.587 571.455 508.223 570.682 510.375 569.136C512.557 567.561 514.223 565.318 515.375 562.409C516.557 559.47 517.148 555.955 517.148 551.864C517.148 547.773 516.572 544.227 515.42 541.227C514.269 538.197 512.602 535.848 510.42 534.182C508.239 532.515 505.587 531.682 502.466 531.682C499.284 531.682 496.602 532.545 494.42 534.273C492.239 535.97 490.587 538.333 489.466 541.364C488.345 544.394 487.784 547.894 487.784 551.864C487.784 555.894 488.345 559.379 489.466 562.318C490.617 565.227 492.269 567.485 494.42 569.091C496.602 570.667 499.284 571.455 502.466 571.455ZM588.489 517.182V531.727H546.443V517.182H588.489ZM555.989 500.455H575.352V565.545C575.352 567.333 575.625 568.727 576.17 569.727C576.716 570.697 577.473 571.379 578.443 571.773C579.443 572.167 580.595 572.364 581.898 572.364C582.807 572.364 583.716 572.288 584.625 572.136C585.534 571.955 586.231 571.818 586.716 571.727L589.761 586.136C588.792 586.439 587.428 586.788 585.67 587.182C583.913 587.606 581.777 587.864 579.261 587.955C574.595 588.136 570.504 587.515 566.989 586.091C563.504 584.667 560.792 582.455 558.852 579.455C556.913 576.455 555.958 572.667 555.989 568.091V500.455ZM631.648 588.364C624.587 588.364 618.481 586.864 613.33 583.864C608.208 580.833 604.254 576.621 601.466 571.227C598.678 565.803 597.284 559.515 597.284 552.364C597.284 545.152 598.678 538.848 601.466 533.455C604.254 528.03 608.208 523.818 613.33 520.818C618.481 517.788 624.587 516.273 631.648 516.273C638.708 516.273 644.799 517.788 649.92 520.818C655.072 523.818 659.042 528.03 661.83 533.455C664.617 538.848 666.011 545.152 666.011 552.364C666.011 559.515 664.617 565.803 661.83 571.227C659.042 576.621 655.072 580.833 649.92 583.864C644.799 586.864 638.708 588.364 631.648 588.364ZM631.739 573.364C634.951 573.364 637.633 572.455 639.784 570.636C641.936 568.788 643.557 566.273 644.648 563.091C645.769 559.909 646.33 556.288 646.33 552.227C646.33 548.167 645.769 544.545 644.648 541.364C643.557 538.182 641.936 535.667 639.784 533.818C637.633 531.97 634.951 531.045 631.739 531.045C628.496 531.045 625.769 531.97 623.557 533.818C621.375 535.667 619.723 538.182 618.602 541.364C617.511 544.545 616.966 548.167 616.966 552.227C616.966 556.288 617.511 559.909 618.602 563.091C619.723 566.273 621.375 568.788 623.557 570.636C625.769 572.455 628.496 573.364 631.739 573.364ZM710.17 588.364C702.989 588.364 696.807 586.909 691.625 584C686.473 581.061 682.504 576.909 679.716 571.545C676.928 566.152 675.534 559.773 675.534 552.409C675.534 545.227 676.928 538.924 679.716 533.5C682.504 528.076 686.428 523.848 691.489 520.818C696.58 517.788 702.549 516.273 709.398 516.273C714.004 516.273 718.292 517.015 722.261 518.5C726.261 519.955 729.746 522.152 732.716 525.091C735.716 528.03 738.049 531.727 739.716 536.182C741.383 540.606 742.216 545.788 742.216 551.727V557.045H683.261V545.045H723.989C723.989 542.258 723.383 539.788 722.17 537.636C720.958 535.485 719.277 533.803 717.125 532.591C715.004 531.348 712.534 530.727 709.716 530.727C706.777 530.727 704.17 531.409 701.898 532.773C699.655 534.106 697.898 535.909 696.625 538.182C695.352 540.424 694.701 542.924 694.67 545.682V557.091C694.67 560.545 695.307 563.53 696.58 566.045C697.883 568.561 699.716 570.5 702.08 571.864C704.443 573.227 707.246 573.909 710.489 573.909C712.64 573.909 714.61 573.606 716.398 573C718.186 572.394 719.716 571.485 720.989 570.273C722.261 569.061 723.231 567.576 723.898 565.818L741.807 567C740.898 571.303 739.034 575.061 736.216 578.273C733.428 581.455 729.822 583.939 725.398 585.727C721.004 587.485 715.928 588.364 710.17 588.364ZM774.511 588.318C770.057 588.318 766.087 587.545 762.602 586C759.117 584.424 756.36 582.106 754.33 579.045C752.33 575.955 751.33 572.106 751.33 567.5C751.33 563.621 752.042 560.364 753.466 557.727C754.89 555.091 756.83 552.97 759.284 551.364C761.739 549.758 764.527 548.545 767.648 547.727C770.799 546.909 774.102 546.333 777.557 546C781.617 545.576 784.89 545.182 787.375 544.818C789.86 544.424 791.663 543.848 792.784 543.091C793.905 542.333 794.466 541.212 794.466 539.727V539.455C794.466 536.576 793.557 534.348 791.739 532.773C789.951 531.197 787.405 530.409 784.102 530.409C780.617 530.409 777.845 531.182 775.784 532.727C773.723 534.242 772.36 536.152 771.693 538.455L753.784 537C754.693 532.758 756.481 529.091 759.148 526C761.814 522.879 765.254 520.485 769.466 518.818C773.708 517.121 778.617 516.273 784.193 516.273C788.072 516.273 791.784 516.727 795.33 517.636C798.905 518.545 802.072 519.955 804.83 521.864C807.617 523.773 809.814 526.227 811.42 529.227C813.027 532.197 813.83 535.758 813.83 539.909V587H795.466V577.318H794.92C793.799 579.5 792.299 581.424 790.42 583.091C788.542 584.727 786.284 586.015 783.648 586.955C781.011 587.864 777.966 588.318 774.511 588.318ZM780.057 574.955C782.905 574.955 785.42 574.394 787.602 573.273C789.784 572.121 791.496 570.576 792.739 568.636C793.981 566.697 794.602 564.5 794.602 562.045V554.636C793.996 555.03 793.163 555.394 792.102 555.727C791.072 556.03 789.905 556.318 788.602 556.591C787.299 556.833 785.996 557.061 784.693 557.273C783.39 557.455 782.208 557.621 781.148 557.773C778.875 558.106 776.89 558.636 775.193 559.364C773.496 560.091 772.178 561.076 771.239 562.318C770.299 563.53 769.83 565.045 769.83 566.864C769.83 569.5 770.784 571.515 772.693 572.909C774.633 574.273 777.087 574.955 780.057 574.955ZM865.739 517.182V531.727H823.693V517.182H865.739ZM833.239 500.455H852.602V565.545C852.602 567.333 852.875 568.727 853.42 569.727C853.966 570.697 854.723 571.379 855.693 571.773C856.693 572.167 857.845 572.364 859.148 572.364C860.057 572.364 860.966 572.288 861.875 572.136C862.784 571.955 863.481 571.818 863.966 571.727L867.011 586.136C866.042 586.439 864.678 586.788 862.92 587.182C861.163 587.606 859.027 587.864 856.511 587.955C851.845 588.136 847.754 587.515 844.239 586.091C840.754 584.667 838.042 582.455 836.102 579.455C834.163 576.455 833.208 572.667 833.239 568.091V500.455ZM889.42 588.182C886.42 588.182 883.845 587.121 881.693 585C879.572 582.848 878.511 580.273 878.511 577.273C878.511 574.303 879.572 571.758 881.693 569.636C883.845 567.515 886.42 566.455 889.42 566.455C892.33 566.455 894.875 567.515 897.057 569.636C899.239 571.758 900.33 574.303 900.33 577.273C900.33 579.273 899.814 581.106 898.784 582.773C897.784 584.409 896.466 585.727 894.83 586.727C893.193 587.697 891.39 588.182 889.42 588.182ZM915.977 587V517.182H935.341V587H915.977ZM925.705 508.182C922.826 508.182 920.356 507.227 918.295 505.318C916.265 503.379 915.25 501.061 915.25 498.364C915.25 495.697 916.265 493.409 918.295 491.5C920.356 489.561 922.826 488.591 925.705 488.591C928.583 488.591 931.038 489.561 933.068 491.5C935.129 493.409 936.159 495.697 936.159 498.364C936.159 501.061 935.129 503.379 933.068 505.318C931.038 507.227 928.583 508.182 925.705 508.182ZM982.42 588.364C975.239 588.364 969.057 586.909 963.875 584C958.723 581.061 954.754 576.909 951.966 571.545C949.178 566.152 947.784 559.773 947.784 552.409C947.784 545.227 949.178 538.924 951.966 533.5C954.754 528.076 958.678 523.848 963.739 520.818C968.83 517.788 974.799 516.273 981.648 516.273C986.254 516.273 990.542 517.015 994.511 518.5C998.511 519.955 1002 522.152 1004.97 525.091C1007.97 528.03 1010.3 531.727 1011.97 536.182C1013.63 540.606 1014.47 545.788 1014.47 551.727V557.045H955.511V545.045H996.239C996.239 542.258 995.633 539.788 994.42 537.636C993.208 535.485 991.527 533.803 989.375 532.591C987.254 531.348 984.784 530.727 981.966 530.727C979.027 530.727 976.42 531.409 974.148 532.773C971.905 534.106 970.148 535.909 968.875 538.182C967.602 540.424 966.951 542.924 966.92 545.682V557.091C966.92 560.545 967.557 563.53 968.83 566.045C970.133 568.561 971.966 570.5 974.33 571.864C976.693 573.227 979.496 573.909 982.739 573.909C984.89 573.909 986.86 573.606 988.648 573C990.436 572.394 991.966 571.485 993.239 570.273C994.511 569.061 995.481 567.576 996.148 565.818L1014.06 567C1013.15 571.303 1011.28 575.061 1008.47 578.273C1005.68 581.455 1002.07 583.939 997.648 585.727C993.254 587.485 988.178 588.364 982.42 588.364Z" fill="white"/>
</svg>
